<svg width="577.2875px" height="108.8px" xmlns="http://www.w3.org/2000/svg" viewBox="-38.64375000000001 20.6 577.2875 108.8" style="background: rgba(0, 0, 0, 0);" preserveAspectRatio="xMidYMid"><defs><filter id="editing-hole" x="-100%" y="-100%" width="300%" height="300%"><feFlood flood-color="#d8d8d8" result="black"></feFlood><feMorphology operator="dilate" radius="2" in="SourceGraphic" result="erode"></feMorphology><feGaussianBlur in="erode" stdDeviation="4" result="blur"></feGaussianBlur><feOffset in="blur" dx="2" dy="2" result="offset"></feOffset><feComposite operator="atop" in="offset" in2="black" result="merge"></feComposite><feComposite operator="in" in="merge" in2="SourceGraphic" result="inner-shadow"></feComposite></filter></defs><g filter="url(#editing-hole)"><g transform="translate(17.0950026512146, 96.95000076293945)"><path d="M44.80-23.62L44.80-16.99L44.80-16.99Q44.80-13.28 43.51-10.17L43.51-10.17L43.51-10.17Q42.23-7.05 39.96-4.80L39.96-4.80L39.96-4.80Q37.69-2.55 34.58-1.27L34.58-1.27L34.58-1.27Q31.46 0 27.81 0L27.81 0L7.93 0L7.93 0Q7.14 0 6.46-0.28L6.46-0.28L6.46-0.28Q5.78-0.57 5.28-1.06L5.28-1.06L5.28-1.06Q4.79-1.56 4.50-2.24L4.50-2.24L4.50-2.24Q4.22-2.92 4.22-3.71L4.22-3.71L4.22-36.90L4.22-36.90Q4.22-37.67 4.50-38.35L4.50-38.35L4.50-38.35Q4.79-39.03 5.28-39.54L5.28-39.54L5.28-39.54Q5.78-40.04 6.46-40.33L6.46-40.33L6.46-40.33Q7.14-40.61 7.93-40.61L7.93-40.61L27.81-40.61L27.81-40.61Q31.46-40.61 34.58-39.34L34.58-39.34L34.58-39.34Q37.69-38.06 39.96-35.81L39.96-35.81L39.96-35.81Q42.23-33.56 43.51-30.43L43.51-30.43L43.51-30.43Q44.80-27.30 44.80-23.62L44.80-23.62ZM37.44-16.99L37.44-23.62L37.44-23.62Q37.44-25.77 36.75-27.56L36.75-27.56L36.75-27.56Q36.05-29.34 34.78-30.60L34.78-30.60L34.78-30.60Q33.50-31.86 31.73-32.55L31.73-32.55L31.73-32.55Q29.96-33.25 27.81-33.25L27.81-33.25L11.58-33.25L11.58-7.36L27.81-7.36L27.81-7.36Q29.96-7.36 31.73-8.06L31.73-8.06L31.73-8.06Q33.50-8.75 34.78-10.01L34.78-10.01L34.78-10.01Q36.05-11.27 36.75-13.04L36.75-13.04L36.75-13.04Q37.44-14.81 37.44-16.99L37.44-16.99ZM84.14-20.48L84.14-20.48L84.14-20.48Q84.14-18.95 83.60-17.18L83.60-17.18L83.60-17.18Q83.06-15.41 81.86-13.89L81.86-13.89L81.86-13.89Q80.66-12.38 78.72-11.36L78.72-11.36L78.72-11.36Q76.78-10.34 74.00-10.34L74.00-10.34L60.72-10.34L60.72-17.33L74.00-17.33L74.00-17.33Q75.50-17.33 76.32-18.25L76.32-18.25L76.32-18.25Q77.14-19.17 77.14-20.53L77.14-20.53L77.14-20.53Q77.14-21.98 76.22-22.80L76.22-22.80L76.22-22.80Q75.30-23.62 74.00-23.62L74.00-23.62L60.72-23.62L60.72-23.62Q59.22-23.62 58.40-22.70L58.40-22.70L58.40-22.70Q57.58-21.78 57.58-20.42L57.58-20.42L57.58-10.14L57.58-10.14Q57.58-8.67 58.50-7.84L58.50-7.84L58.50-7.84Q59.42-7.02 60.78-7.02L60.78-7.02L74.00-7.02L74.00 0L60.72 0L60.72 0Q59.19 0 57.42-0.54L57.42-0.54L57.42-0.54Q55.65-1.08 54.13-2.28L54.13-2.28L54.13-2.28Q52.62-3.48 51.60-5.42L51.60-5.42L51.60-5.42Q50.58-7.36 50.58-10.14L50.58-10.14L50.58-20.48L50.58-20.48Q50.58-22.00 51.12-23.77L51.12-23.77L51.12-23.77Q51.66-25.54 52.86-27.06L52.86-27.06L52.86-27.06Q54.06-28.58 56.00-29.59L56.00-29.59L56.00-29.59Q57.94-30.61 60.72-30.61L60.72-30.61L74.00-30.61L74.00-30.61Q75.53-30.61 77.30-30.08L77.30-30.08L77.30-30.08Q79.07-29.54 80.59-28.33L80.59-28.33L80.59-28.33Q82.10-27.13 83.12-25.19L83.12-25.19L83.12-25.19Q84.14-23.25 84.14-20.48ZM122.85-20.31L122.85-10.34L122.85-10.34Q122.85-9.29 122.61-8.13L122.61-8.13L122.61-8.13Q122.37-6.97 121.86-5.82L121.86-5.82L121.86-5.82Q121.35-4.67 120.55-3.63L120.55-3.63L120.55-3.63Q119.74-2.58 118.59-1.77L118.59-1.77L118.59-1.77Q117.44-0.96 115.94-0.48L115.94-0.48L115.94-0.48Q114.44 0 112.54 0L112.54 0L99.26 0L99.26 0Q98.21 0 97.05-0.24L97.05-0.24L97.05-0.24Q95.89-0.48 94.75-0.99L94.75-0.99L94.75-0.99Q93.60-1.50 92.55-2.31L92.55-2.31L92.55-2.31Q91.50-3.12 90.70-4.26L90.70-4.26L90.70-4.26Q89.89-5.41 89.41-6.92L89.41-6.92L89.41-6.92Q88.93-8.44 88.93-10.34L88.93-10.34L88.93-43.56L96.29-43.56L96.29-10.34L96.29-10.34Q96.29-8.98 97.14-8.17L97.14-8.17L97.14-8.17Q97.99-7.36 99.26-7.36L99.26-7.36L112.54-7.36L112.54-7.36Q113.93-7.36 114.71-8.18L114.71-8.18L114.71-8.18Q115.49-9.01 115.49-10.34L115.49-10.34L115.49-20.31L115.49-20.31Q115.49-21.69 114.67-22.47L114.67-22.47L114.67-22.47Q113.85-23.25 112.54-23.25L112.54-23.25L99.26-23.25L99.26-30.61L112.54-30.61L112.54-30.61Q113.59-30.61 114.75-30.37L114.75-30.37L114.75-30.37Q115.92-30.13 117.06-29.62L117.06-29.62L117.06-29.62Q118.21-29.11 119.26-28.31L119.26-28.31L119.26-28.31Q120.30-27.50 121.10-26.35L121.10-26.35L121.10-26.35Q121.89-25.21 122.37-23.70L122.37-23.70L122.37-23.70Q122.85-22.20 122.85-20.31L122.85-20.31ZM156.84-30.61L156.84-23.25L143.98-23.25L143.98 0L136.53 0L136.53-23.25L126.96-23.25L126.96-30.61L136.53-30.61L136.53-40.61L143.98-40.61L143.98-30.61L156.84-30.61ZM202.97-26.96L202.97-23.62L202.97-23.62Q202.97-21.10 202.35-19.12L202.35-19.12L202.35-19.12Q201.73-17.13 200.66-15.62L200.66-15.62L200.66-15.62Q199.60-14.10 198.21-13.03L198.21-13.03L198.21-13.03Q196.83-11.95 195.31-11.27L195.31-11.27L195.31-11.27Q193.80-10.59 192.25-10.28L192.25-10.28L192.25-10.28Q190.71-9.97 189.35-9.97L189.35-9.97L172.70-9.97L172.70-17.33L189.35-17.33L189.35-17.33Q190.77-17.45 191.91-17.91L191.91-17.91L191.91-17.91Q193.06-18.38 193.88-19.17L193.88-19.17L193.88-19.17Q194.70-19.97 195.16-21.08L195.16-21.08L195.16-21.08Q195.61-22.20 195.61-23.62L195.61-23.62L195.61-26.96L195.61-26.96Q195.47-28.35 195.01-29.51L195.01-29.51L195.01-29.51Q194.56-30.67 193.78-31.49L193.78-31.49L193.78-31.49Q193.00-32.31 191.90-32.78L191.90-32.78L191.90-32.78Q190.79-33.25 189.35-33.25L189.35-33.25L172.75-33.25L172.75-33.25Q171.28-33.25 170.52-32.48L170.52-32.48L170.52-32.48Q169.75-31.72 169.75-30.27L169.75-30.27L169.75 0L162.39 0L162.39-30.27L162.39-30.27Q162.39-33.11 163.42-35.09L163.42-35.09L163.42-35.09Q164.46-37.07 166.00-38.29L166.00-38.29L166.00-38.29Q167.54-39.51 169.36-40.06L169.36-40.06L169.36-40.06Q171.17-40.61 172.70-40.61L172.70-40.61L189.35-40.61L189.35-40.61Q191.84-40.61 193.82-39.97L193.82-39.97L193.82-39.97Q195.81-39.34 197.32-38.27L197.32-38.27L197.32-38.27Q198.84-37.21 199.90-35.83L199.90-35.83L199.90-35.83Q200.96-34.44 201.65-32.92L201.65-32.92L201.65-32.92Q202.35-31.41 202.66-29.86L202.66-29.86L202.66-29.86Q202.97-28.32 202.97-26.96L202.97-26.96ZM241.74-20.31L241.74-10.34L241.74-10.34Q241.74-8.44 241.26-6.92L241.26-6.92L241.26-6.92Q240.78-5.41 239.99-4.26L239.99-4.26L239.99-4.26Q239.19-3.12 238.15-2.31L238.15-2.31L238.15-2.31Q237.10-1.50 235.95-0.99L235.95-0.99L235.95-0.99Q234.80-0.48 233.63-0.24L233.63-0.24L233.63-0.24Q232.45 0 231.41 0L231.41 0L218.12 0L218.12 0Q216.59 0 214.78-0.54L214.78-0.54L214.78-0.54Q212.97-1.08 211.43-2.31L211.43-2.31L211.43-2.31Q209.88-3.54 208.85-5.51L208.85-5.51L208.85-5.51Q207.81-7.48 207.81-10.34L207.81-10.34L207.81-20.31L207.81-20.31Q207.81-23.14 208.85-25.11L208.85-25.11L208.85-25.11Q209.88-27.07 211.43-28.31L211.43-28.31L211.43-28.31Q212.97-29.54 214.78-30.08L214.78-30.08L214.78-30.08Q216.59-30.61 218.12-30.61L218.12-30.61L231.41-30.61L231.41-30.61Q234.24-30.61 236.22-29.59L236.22-29.59L236.22-29.59Q238.20-28.58 239.42-27.03L239.42-27.03L239.42-27.03Q240.64-25.49 241.19-23.68L241.19-23.68L241.19-23.68Q241.74-21.86 241.74-20.31L241.74-20.31ZM234.38-10.34L234.38-20.25L234.38-20.25Q234.38-21.78 233.61-22.51L233.61-22.51L233.61-22.51Q232.85-23.25 231.41-23.25L231.41-23.25L218.18-23.25L218.18-23.25Q216.71-23.25 215.94-22.50L215.94-22.50L215.94-22.50Q215.18-21.75 215.18-20.31L215.18-20.31L215.18-10.34L215.18-10.34Q215.18-8.89 215.94-8.13L215.94-8.13L215.94-8.13Q216.71-7.36 218.18-7.36L218.18-7.36L231.41-7.36L231.41-7.36Q232.91-7.36 233.64-8.13L233.64-8.13L233.64-8.13Q234.38-8.89 234.38-10.34L234.38-10.34ZM274.79-30.61L274.79-23.25L258.22-23.25L258.22-23.25Q256.72-23.25 255.96-22.50L255.96-22.50L255.96-22.50Q255.19-21.75 255.19-20.31L255.19-20.31L255.19 0L247.83 0L247.83-20.31L247.83-20.31Q247.83-22.20 248.31-23.70L248.31-23.70L248.31-23.70Q248.79-25.21 249.60-26.35L249.60-26.35L249.60-26.35Q250.41-27.50 251.46-28.31L251.46-28.31L251.46-28.31Q252.50-29.11 253.65-29.62L253.65-29.62L253.65-29.62Q254.80-30.13 255.97-30.37L255.97-30.37L255.97-30.37Q257.15-30.61 258.17-30.61L258.17-30.61L274.79-30.61ZM307.47-30.61L307.47-23.25L294.62-23.25L294.62 0L287.17 0L287.17-23.25L277.60-23.25L277.60-30.61L287.17-30.61L287.17-40.61L294.62-40.61L294.62-30.61L307.47-30.61ZM339.42-30.61L339.42-23.25L322.77-23.25L322.77-30.61L339.42-30.61ZM339.42-43.90L339.42-36.53L322.82-36.53L322.82-36.53Q321.32-36.53 320.56-35.78L320.56-35.78L320.56-35.78Q319.79-35.03 319.79-33.59L319.79-33.59L319.79 0L312.43 0L312.43-33.59L312.43-33.59Q312.43-35.49 312.91-36.99L312.91-36.99L312.91-36.99Q313.39-38.49 314.20-39.63L314.20-39.63L314.20-39.63Q315.01-40.78 316.05-41.59L316.05-41.59L316.05-41.59Q317.10-42.40 318.25-42.91L318.25-42.91L318.25-42.91Q319.40-43.42 320.56-43.66L320.56-43.66L320.56-43.66Q321.72-43.90 322.77-43.90L322.77-43.90L339.42-43.90ZM377.42-20.31L377.42-10.34L377.42-10.34Q377.42-8.44 376.94-6.92L376.94-6.92L376.94-6.92Q376.46-5.41 375.67-4.26L375.67-4.26L375.67-4.26Q374.88-3.12 373.83-2.31L373.83-2.31L373.83-2.31Q372.78-1.50 371.63-0.99L371.63-0.99L371.63-0.99Q370.49-0.48 369.31-0.24L369.31-0.24L369.31-0.24Q368.14 0 367.09 0L367.09 0L353.81 0L353.81 0Q352.28 0 350.46-0.54L350.46-0.54L350.46-0.54Q348.65-1.08 347.11-2.31L347.11-2.31L347.11-2.31Q345.56-3.54 344.53-5.51L344.53-5.51L344.53-5.51Q343.50-7.48 343.50-10.34L343.50-10.34L343.50-20.31L343.50-20.31Q343.50-23.14 344.53-25.11L344.53-25.11L344.53-25.11Q345.56-27.07 347.11-28.31L347.11-28.31L347.11-28.31Q348.65-29.54 350.46-30.08L350.46-30.08L350.46-30.08Q352.28-30.61 353.81-30.61L353.81-30.61L367.09-30.61L367.09-30.61Q369.92-30.61 371.90-29.59L371.90-29.59L371.90-29.59Q373.88-28.58 375.10-27.03L375.10-27.03L375.10-27.03Q376.32-25.49 376.87-23.68L376.87-23.68L376.87-23.68Q377.42-21.86 377.42-20.31L377.42-20.31ZM370.06-10.34L370.06-20.25L370.06-20.25Q370.06-21.78 369.30-22.51L369.30-22.51L369.30-22.51Q368.53-23.25 367.09-23.25L367.09-23.25L353.86-23.25L353.86-23.25Q352.39-23.25 351.63-22.50L351.63-22.50L351.63-22.50Q350.86-21.75 350.86-20.31L350.86-20.31L350.86-10.34L350.86-10.34Q350.86-8.89 351.63-8.13L351.63-8.13L351.63-8.13Q352.39-7.36 353.86-7.36L353.86-7.36L367.09-7.36L367.09-7.36Q368.59-7.36 369.33-8.13L369.33-8.13L369.33-8.13Q370.06-8.89 370.06-10.34L370.06-10.34ZM397.14-7.36L397.14 0L393.85 0L393.85 0Q392.26 0 390.47-0.54L390.47-0.54L390.47-0.54Q388.67-1.08 387.11-2.31L387.11-2.31L387.11-2.31Q385.55-3.54 384.53-5.51L384.53-5.51L384.53-5.51Q383.51-7.48 383.51-10.34L383.51-10.34L383.51-43.56L390.88-43.56L390.88-10.34L390.88-10.34Q390.88-8.98 391.73-8.17L391.73-8.17L391.73-8.17Q392.58-7.36 393.85-7.36L393.85-7.36L397.14-7.36ZM408.01-3.71L408.01-3.71L408.01-3.71Q408.01-2.95 407.71-2.28L407.71-2.28L407.71-2.28Q407.42-1.61 406.92-1.12L406.92-1.12L406.92-1.12Q406.42-0.62 405.76-0.34L405.76-0.34L405.76-0.34Q405.09-0.06 404.36-0.06L404.36-0.06L404.36-0.06Q403.59-0.06 402.93-0.34L402.93-0.34L402.93-0.34Q402.26-0.62 401.77-1.12L401.77-1.12L401.77-1.12Q401.27-1.61 400.99-2.28L400.99-2.28L400.99-2.28Q400.70-2.95 400.70-3.71L400.70-3.71L400.70-3.71Q400.70-4.45 400.99-5.11L400.99-5.11L400.99-5.11Q401.27-5.78 401.77-6.27L401.77-6.27L401.77-6.27Q402.26-6.77 402.93-7.07L402.93-7.07L402.93-7.07Q403.59-7.36 404.36-7.36L404.36-7.36L404.36-7.36Q405.09-7.36 405.76-7.07L405.76-7.07L405.76-7.07Q406.42-6.77 406.92-6.27L406.92-6.27L406.92-6.27Q407.42-5.78 407.71-5.11L407.71-5.11L407.71-5.11Q408.01-4.45 408.01-3.71ZM421.24-43.56L421.24-36.90L413.87-36.90L413.87-43.56L421.24-43.56ZM421.24-30.61L421.24 0L413.87 0L413.87-30.61L421.24-30.61ZM461.59-20.31L461.59-10.34L461.59-10.34Q461.59-8.44 461.11-6.92L461.11-6.92L461.11-6.92Q460.63-5.41 459.84-4.26L459.84-4.26L459.84-4.26Q459.04-3.12 458.00-2.31L458.00-2.31L458.00-2.31Q456.95-1.50 455.80-0.99L455.80-0.99L455.80-0.99Q454.65-0.48 453.48-0.24L453.48-0.24L453.48-0.24Q452.30 0 451.26 0L451.26 0L437.97 0L437.97 0Q436.44 0 434.63-0.54L434.63-0.54L434.63-0.54Q432.82-1.08 431.28-2.31L431.28-2.31L431.28-2.31Q429.73-3.54 428.70-5.51L428.70-5.51L428.70-5.51Q427.67-7.48 427.67-10.34L427.67-10.34L427.67-20.31L427.67-20.31Q427.67-23.14 428.70-25.11L428.70-25.11L428.70-25.11Q429.73-27.07 431.28-28.31L431.28-28.31L431.28-28.31Q432.82-29.54 434.63-30.08L434.63-30.08L434.63-30.08Q436.44-30.61 437.97-30.61L437.97-30.61L451.26-30.61L451.26-30.61Q454.09-30.61 456.07-29.59L456.07-29.59L456.07-29.59Q458.05-28.58 459.27-27.03L459.27-27.03L459.27-27.03Q460.49-25.49 461.04-23.68L461.04-23.68L461.04-23.68Q461.59-21.86 461.59-20.31L461.59-20.31ZM454.23-10.34L454.23-20.25L454.23-20.25Q454.23-21.78 453.46-22.51L453.46-22.51L453.46-22.51Q452.70-23.25 451.26-23.25L451.26-23.25L438.03-23.25L438.03-23.25Q436.56-23.25 435.79-22.50L435.79-22.50L435.79-22.50Q435.03-21.75 435.03-20.31L435.03-20.31L435.03-10.34L435.03-10.34Q435.03-8.89 435.79-8.13L435.79-8.13L435.79-8.13Q436.56-7.36 438.03-7.36L438.03-7.36L451.26-7.36L451.26-7.36Q452.76-7.36 453.49-8.13L453.49-8.13L453.49-8.13Q454.23-8.89 454.23-10.34L454.23-10.34Z" fill="#ffffff"></path></g></g><style>text {
  font-size: 64px;
  font-family: Arial Black;
  dominant-baseline: central;
  text-anchor: middle;
}</style></svg>